<svg width="228" height="90" viewBox="0 0 228 90" fill="none" xmlns="http://www.w3.org/2000/svg">
<g id="Union">
<path fill-rule="evenodd" clip-rule="evenodd" d="M9.75987 0.651096H0V89.3489H9.75987L20.0681 57.3522H20.5067L30.8149 89.3489H40.5748V0.651096H30.8149L20.5067 32.6478H20.0681L9.75987 0.651096ZM32.8985 17.2773H32.5877L23.8587 45L32.5877 72.7227H32.8985V17.2773ZM16.7197 45L7.98701 17.161H7.67631V72.839H7.98701L16.7197 45Z" fill="black"/>
<path d="M78.1293 0.651096H70.2153V30.7178C70.2153 32.5315 69.8986 34.1438 69.265 35.5545C68.6435 36.9652 67.7601 38.0736 66.6148 38.8797C65.4816 39.6858 64.1474 40.0889 62.6122 40.0889C61.0891 40.0889 59.7549 39.6858 58.6095 38.8797C57.4642 38.0736 56.5747 36.9652 55.9411 35.5545C55.3197 34.1438 55.009 32.5315 55.009 30.7178V0.651096H47.0951V31.5781C47.0951 35.0506 47.7408 38.0891 49.0324 40.6935C49.8615 42.3654 50.9041 43.8009 52.16 45C50.9041 46.1991 49.8615 47.6347 49.0324 49.3065C47.7408 51.9109 47.0951 54.9494 47.0951 58.4219V89.3489H55.009V59.2823C55.009 57.4685 55.3197 55.8562 55.9411 54.4455C56.5747 53.0348 57.4642 51.9264 58.6095 51.1203C59.7549 50.3142 61.0891 49.9111 62.6122 49.9111C64.1474 49.9111 65.4816 50.3142 66.6148 51.1203C67.7601 51.9264 68.6435 53.0348 69.265 54.4455C69.8986 55.8562 70.2153 57.4685 70.2153 59.2823V89.3489H78.1293V58.4219C78.1293 54.9494 77.4774 51.9109 76.1736 49.3065C75.3445 47.6347 74.302 46.1991 73.046 45C74.302 43.8009 75.3445 42.3654 76.1736 40.6935C77.4774 38.0891 78.1293 35.0506 78.1293 31.5781V0.651096Z" fill="black"/>
<path d="M103.064 9.97571C104.172 11.0144 104.8 12.4716 104.946 14.3474H112.531C112.494 11.5104 111.897 9.01457 110.74 6.85976C109.582 4.70494 107.962 3.02294 105.878 1.81377C103.807 0.604589 101.382 0 98.604 0C95.8746 0 93.4377 0.604589 91.2932 1.81377C89.1487 3.02294 87.4611 4.70494 86.2305 6.85976C85.012 9.01457 84.4089 11.5337 84.4211 14.4171C84.4089 17.9361 85.3167 20.7343 87.1443 22.8116C88.972 24.8889 91.4638 26.4159 94.6196 27.3925L98.6954 28.6947C100.06 29.1133 101.211 29.5783 102.15 30.0899C103.1 30.6015 103.819 31.2216 104.306 31.9502C104.806 32.6788 105.056 33.5779 105.056 34.6476C105.056 35.7948 104.782 36.8102 104.233 37.6938C103.685 38.5774 102.911 39.2673 101.912 39.7633C100.925 40.2594 99.7615 40.5074 98.4212 40.5074C97.0565 40.5074 95.832 40.2439 94.7475 39.7168C93.6753 39.1742 92.8163 38.3759 92.1705 37.3217C91.5369 36.2521 91.1774 34.9189 91.0922 33.3221H83.4341C83.495 36.7481 84.1469 39.6238 85.3898 41.9492C86.0198 43.1087 86.7726 44.1256 87.6483 45C86.7726 45.8744 86.0198 46.8913 85.3898 48.0508C84.1469 50.3762 83.495 53.2519 83.4341 56.6779H91.0922C91.1774 55.0811 91.5369 53.7479 92.1705 52.6783C92.8163 51.6241 93.6753 50.8258 94.7475 50.2832C95.832 49.7561 97.0565 49.4926 98.4212 49.4926C99.7615 49.4926 100.925 49.7406 101.912 50.2367C102.911 50.7327 103.685 51.4226 104.233 52.3062C104.782 53.1899 105.056 54.2053 105.056 55.3524C105.056 56.4221 104.806 57.3212 104.306 58.0498C103.819 58.7784 103.1 59.3985 102.15 59.9101C101.211 60.4217 100.06 60.8867 98.6954 61.3053L94.6196 62.6075C91.4638 63.5841 88.972 65.1111 87.1443 67.1884C85.3167 69.2657 84.4089 72.0639 84.4211 75.5829C84.4089 78.4663 85.012 80.9854 86.2305 83.1402C87.4611 85.2951 89.1487 86.9771 91.2932 88.1862C93.4377 89.3954 95.8746 90 98.604 90C101.382 90 103.807 89.3954 105.878 88.1862C107.962 86.9771 109.582 85.2951 110.74 83.1402C111.897 80.9854 112.494 78.4896 112.531 75.6527H104.946C104.8 77.5284 104.172 78.9856 103.064 80.0243C101.955 81.063 100.45 81.5823 98.5491 81.5823C97.2576 81.5823 96.1671 81.3497 95.2776 80.8847C94.3881 80.4351 93.7058 79.8073 93.2306 79.0011C92.7675 78.195 92.536 77.2804 92.536 76.2572C92.5117 75.4046 92.6518 74.6605 92.9564 74.0249C93.2732 73.3893 93.7058 72.839 94.2541 72.3739C94.8024 71.9244 95.436 71.529 96.1549 71.188C96.8738 70.8624 97.6414 70.5834 98.4578 70.3509L101.821 69.3277C103.453 68.8627 104.952 68.2426 106.317 67.4675C107.682 66.6923 108.863 65.739 109.863 64.6073C110.862 63.4756 111.635 62.1424 112.184 60.6077C112.744 59.073 113.031 57.3135 113.043 55.3292C113.031 52.4147 112.446 49.8879 111.288 47.7486C110.734 46.7219 110.061 45.8057 109.268 45C110.061 44.1943 110.734 43.2781 111.288 42.2515C112.446 40.1121 113.031 37.5853 113.043 34.6708C113.031 32.6865 112.744 30.927 112.184 29.3923C111.635 27.8576 110.862 26.5244 109.863 25.3927C108.863 24.2611 107.682 23.3077 106.317 22.5326C104.952 21.7574 103.453 21.1374 101.821 20.6723L98.4578 19.6491C97.6414 19.4166 96.8738 19.1376 96.1549 18.812C95.436 18.471 94.8024 18.0757 94.2541 17.6261C93.7058 17.161 93.2732 16.6107 92.9564 15.9751C92.6518 15.3395 92.5117 14.5954 92.536 13.7428C92.536 12.7196 92.7675 11.805 93.2306 10.9989C93.7058 10.1927 94.3881 9.56491 95.2776 9.11534C96.1671 8.65027 97.2576 8.41774 98.5491 8.41774C100.45 8.41774 101.955 8.93706 103.064 9.97571Z" fill="black"/>
<path d="M118.366 0.651096V89.3489H143.588V81.0474H126.28V69.6998H142.29V61.3983H126.28V50.0274H143.661V39.9726H126.28V28.6017H142.29V20.3002H126.28V8.95256H143.588V0.651096H118.366Z" fill="black"/>
<path d="M180.914 0.651096H173V30.7178C173 32.5315 172.683 34.1438 172.05 35.5545C171.428 36.9652 170.545 38.0736 169.4 38.8797C168.266 39.6858 166.932 40.0889 165.397 40.0889C163.874 40.0889 162.54 39.6858 161.394 38.8797C160.249 38.0736 159.36 36.9652 158.726 35.5545C158.104 34.1438 157.794 32.5315 157.794 30.7178V0.651096H149.88V31.5781C149.88 35.0506 150.526 38.0891 151.817 40.6935C152.646 42.3654 153.689 43.8009 154.945 45C153.689 46.1991 152.646 47.6347 151.817 49.3065C150.526 51.9109 149.88 54.9494 149.88 58.4219V89.3489H157.794V59.2823C157.794 57.4685 158.104 55.8562 158.726 54.4455C159.36 53.0348 160.249 51.9264 161.394 51.1203C162.54 50.3142 163.874 49.9111 165.397 49.9111C166.932 49.9111 168.266 50.3142 169.4 51.1203C170.545 51.9264 171.428 53.0348 172.05 54.4455C172.683 55.8562 173 57.4685 173 59.2823V89.3489H180.914V58.4219C180.914 54.9494 180.262 51.9109 178.958 49.3065C178.129 47.6347 177.087 46.1991 175.831 45C177.087 43.8009 178.129 42.3654 178.958 40.6935C180.262 38.0891 180.914 35.0506 180.914 31.5781V0.651096Z" fill="black"/>
<path fill-rule="evenodd" clip-rule="evenodd" d="M197.185 0.651096H187.425V89.3489H197.185L207.493 57.3522H207.932L218.24 89.3489H228V0.651096H218.24L207.932 32.6478H207.493L197.185 0.651096ZM220.324 17.2773H220.013L211.284 45L220.013 72.7227H220.324V17.2773ZM204.145 45L195.412 17.161H195.102V72.839H195.412L204.145 45Z" fill="black"/>
</g>
</svg>
