<svg width="807" height="250" viewBox="0 0 807 250" fill="none" xmlns="http://www.w3.org/2000/svg">
<path fill-rule="evenodd" clip-rule="evenodd" d="M34.5448 1.8086H0V248.191H34.5448L71.0304 159.312H72.5829L109.068 248.191H143.613V1.8086H109.068L72.5829 90.6883H71.0304L34.5448 1.8086ZM116.443 47.9925H115.343L84.4472 125L115.343 202.008H116.443V47.9925ZM59.1789 125L28.2698 47.6695H27.1701V202.331H28.2698L59.1789 125Z" fill="white"/>
<path d="M276.536 1.8086H248.525V85.3271C248.525 90.3653 247.404 94.8438 245.161 98.7624C242.962 102.681 239.835 105.76 235.781 107.999C231.771 110.238 227.048 111.358 221.614 111.358C216.223 111.358 211.501 110.238 207.447 107.999C203.393 105.76 200.245 102.681 198.002 98.7624C195.803 94.8438 194.703 90.3653 194.703 85.3271V1.8086H166.692V87.717C166.692 97.3629 168.977 105.803 173.549 113.037C176.484 117.682 180.174 121.669 184.619 125C180.174 128.331 176.484 132.318 173.549 136.963C168.977 144.197 166.692 152.637 166.692 162.283V248.191H194.703V164.673C194.703 159.635 195.803 155.156 198.002 151.238C200.245 147.319 203.393 144.24 207.447 142.001C211.501 139.762 216.223 138.642 221.614 138.642C227.048 138.642 231.771 139.762 235.781 142.001C239.835 144.24 242.962 147.319 245.161 151.238C247.404 155.156 248.525 159.635 248.525 164.673V248.191H276.536V162.283C276.536 152.637 274.229 144.197 269.615 136.963C266.68 132.318 262.99 128.331 258.545 125C262.99 121.669 266.68 117.682 269.615 113.037C274.229 105.803 276.536 97.3629 276.536 87.717V1.8086Z" fill="white"/>
<path d="M364.791 27.7103C368.715 30.5955 370.936 34.6433 371.454 39.8538H398.3C398.171 31.9734 396.058 25.0405 391.961 19.0549C387.864 13.0693 382.128 8.39707 374.753 5.03824C367.421 1.67941 358.839 0 349.006 0C339.346 0 330.72 1.67941 323.13 5.03824C315.54 8.39707 309.566 13.0693 305.211 19.0549C300.898 25.0405 298.763 32.038 298.806 40.0475C298.763 49.8226 301.976 57.5953 308.445 63.3655C314.914 69.1358 323.734 73.3774 334.904 76.0903L349.33 79.7075C354.16 80.8702 358.235 82.1621 361.556 83.5831C364.92 85.0041 367.465 86.7266 369.19 88.7505C370.958 90.7744 371.842 93.272 371.842 96.2433C371.842 99.4299 370.872 102.25 368.931 104.705C366.99 107.159 364.252 109.076 360.715 110.454C357.222 111.832 353.103 112.521 348.359 112.521C343.529 112.521 339.195 111.789 335.356 110.325C331.561 108.817 328.521 106.6 326.235 103.671C323.992 100.7 322.72 96.9969 322.418 92.5615H295.313C295.529 102.078 297.836 110.066 302.235 116.525C304.465 119.746 307.129 122.571 310.229 125C307.129 127.429 304.465 130.254 302.235 133.475C297.836 139.934 295.529 147.922 295.313 157.439H322.418C322.72 153.003 323.992 149.3 326.235 146.329C328.521 143.4 331.561 141.183 335.356 139.676C339.195 138.211 343.529 137.479 348.359 137.479C353.103 137.479 357.222 138.168 360.715 139.546C364.252 140.924 366.99 142.841 368.931 145.295C370.872 147.75 371.842 150.57 371.842 153.757C371.842 156.728 370.958 159.226 369.19 161.249C367.465 163.273 364.92 164.996 361.556 166.417C358.235 167.838 354.16 169.13 349.33 170.292L334.904 173.91C323.734 176.623 314.914 180.864 308.445 186.634C301.976 192.405 298.763 200.177 298.806 209.952C298.763 217.962 300.898 224.96 305.211 230.945C309.566 236.931 315.54 241.603 323.13 244.962C330.72 248.321 339.346 250 349.006 250C358.839 250 367.421 248.321 374.753 244.962C382.128 241.603 387.864 236.931 391.961 230.945C396.058 224.96 398.171 218.027 398.3 210.146H371.454C370.936 215.357 368.715 219.405 364.791 222.29C360.866 225.175 355.54 226.617 348.812 226.617C344.241 226.617 340.381 225.971 337.232 224.68C334.084 223.431 331.669 221.687 329.987 219.448C328.348 217.208 327.529 214.668 327.529 211.826C327.443 209.457 327.939 207.39 329.017 205.625C330.138 203.859 331.669 202.331 333.61 201.039C335.551 199.79 337.793 198.692 340.338 197.744C342.882 196.84 345.599 196.065 348.489 195.419L360.392 192.577C366.171 191.285 371.475 189.563 376.306 187.41C381.136 185.256 385.319 182.608 388.856 179.465C392.392 176.321 395.131 172.618 397.071 168.355C399.055 164.092 400.069 159.204 400.112 153.692C400.069 145.597 397.999 138.577 393.901 132.635C391.942 129.783 389.559 127.238 386.752 125C389.559 122.762 391.942 120.217 393.901 117.365C397.999 111.423 400.069 104.404 400.112 96.3079C400.069 90.796 399.055 85.9084 397.071 81.6453C395.131 77.3822 392.392 73.6789 388.856 70.5353C385.319 67.3918 381.136 64.7435 376.306 62.5904C371.475 60.4373 366.171 58.7149 360.392 57.423L348.489 54.5809C345.599 53.935 342.882 53.1599 340.338 52.2556C337.793 51.3082 335.551 50.2101 333.61 48.9614C331.669 47.6695 330.138 46.1408 329.017 44.3753C327.939 42.6097 327.443 40.5428 327.529 38.1744C327.529 35.3323 328.348 32.7916 329.987 30.5524C331.669 28.3132 334.084 26.5692 337.232 25.3204C340.381 24.0285 344.241 23.3826 348.812 23.3826C355.54 23.3826 360.866 24.8252 364.791 27.7103Z" fill="white"/>
<path d="M418.953 1.8086V248.191H508.226V225.132H446.964V193.61H503.633V170.551H446.964V138.965H508.485V111.035H446.964V79.4492H503.633V56.3895H446.964V24.8682H508.226V1.8086H418.953Z" fill="white"/>
<path d="M640.341 1.8086H612.33V85.3271C612.33 90.3653 611.208 94.8438 608.966 98.7624C606.766 102.681 603.639 105.76 599.586 107.999C595.575 110.238 590.852 111.358 585.418 111.358C580.027 111.358 575.305 110.238 571.251 107.999C567.197 105.76 564.049 102.681 561.806 98.7624C559.607 94.8438 558.507 90.3653 558.507 85.3271V1.8086H530.496V87.717C530.496 97.3629 532.782 105.803 537.353 113.037C540.288 117.682 543.978 121.669 548.423 125C543.978 128.331 540.288 132.318 537.353 136.963C532.782 144.197 530.496 152.637 530.496 162.283V248.191H558.507V164.673C558.507 159.635 559.607 155.156 561.806 151.238C564.049 147.319 567.197 144.24 571.251 142.001C575.305 139.762 580.027 138.642 585.418 138.642C590.852 138.642 595.575 139.762 599.586 142.001C603.639 144.24 606.766 147.319 608.966 151.238C611.208 155.156 612.33 159.635 612.33 164.673V248.191H640.341V162.283C640.341 152.637 638.033 144.197 633.419 136.963C630.484 132.318 626.794 128.331 622.349 125C626.794 121.669 630.484 117.682 633.419 113.037C638.033 105.803 640.341 97.3629 640.341 87.717V1.8086Z" fill="white"/>
<path fill-rule="evenodd" clip-rule="evenodd" d="M697.932 1.8086H663.387V248.191H697.932L734.417 159.312H735.97L772.455 248.191H807V1.8086H772.455L735.97 90.6883H734.417L697.932 1.8086ZM779.83 47.9925H778.73L747.834 125L778.73 202.008H779.83V47.9925ZM722.566 125L691.656 47.6695H690.557V202.331H691.656L722.566 125Z" fill="white"/>
</svg>
