<svg width="204" height="248" viewBox="0 0 204 248" fill="none" xmlns="http://www.w3.org/2000/svg">
<path d="M4.14191 52.3105H23.0865L43.0953 101.148H43.9468L63.9557 52.3105H82.9002V124.999H68V77.6878H67.3969L48.5942 124.645H38.4479L19.6452 77.5103H19.0421V124.999H4.14191V52.3105Z" fill="black"/>
<path d="M130.217 101.787V70.4827H145.33V124.999H130.82V115.097H130.253C129.023 118.291 126.977 120.859 124.115 122.799C121.277 124.739 117.812 125.709 113.721 125.709C110.078 125.709 106.874 124.881 104.106 123.225C101.339 121.569 99.1752 119.214 97.6142 116.162C96.0769 113.109 95.2964 109.454 95.2727 105.195V70.4827H110.386V102.497C110.409 105.715 111.273 108.259 112.976 110.128C114.678 111.997 116.961 112.932 119.823 112.932C121.644 112.932 123.347 112.518 124.931 111.69C126.516 110.838 127.793 109.584 128.763 107.928C129.756 106.271 130.241 104.224 130.217 101.787Z" fill="black"/>
<path d="M202.758 86.0285L188.922 86.8803C188.686 85.6973 188.177 84.6325 187.397 83.686C186.616 82.7159 185.588 81.9469 184.31 81.379C183.057 80.7875 181.555 80.4917 179.805 80.4917C177.463 80.4917 175.489 80.9886 173.88 81.9824C172.272 82.9525 171.468 84.2539 171.468 85.8866C171.468 87.188 171.988 88.2882 173.029 89.1874C174.069 90.0865 175.855 90.8082 178.386 91.3524L188.248 93.34C193.546 94.4285 197.496 96.1794 200.098 98.5929C202.699 101.006 204 104.177 204 108.105C204 111.678 202.948 114.813 200.843 117.511C198.761 120.208 195.899 122.314 192.257 123.828C188.639 125.319 184.464 126.064 179.734 126.064C172.52 126.064 166.773 124.562 162.492 121.557C158.235 118.528 155.74 114.411 155.007 109.205L169.871 108.424C170.321 110.625 171.409 112.305 173.135 113.464C174.862 114.6 177.073 115.168 179.769 115.168C182.418 115.168 184.547 114.659 186.155 113.642C187.787 112.601 188.615 111.264 188.639 109.631C188.615 108.259 188.035 107.135 186.9 106.259C185.765 105.36 184.015 104.674 181.65 104.201L172.213 102.32C166.891 101.255 162.93 99.4093 160.328 96.7828C157.75 94.1563 156.461 90.8082 156.461 86.7384C156.461 83.2364 157.407 80.2196 159.299 77.6878C161.215 75.1559 163.899 73.2038 167.353 71.8315C170.829 70.4591 174.897 69.7729 179.557 69.7729C186.439 69.7729 191.855 71.2281 195.805 74.1385C199.778 77.0489 202.096 81.0122 202.758 86.0285Z" fill="black"/>
<path d="M27.0333 248C21.4279 248 16.6031 246.864 12.5588 244.593C8.53806 242.298 5.43976 239.056 3.26386 234.868C1.08795 230.656 0 225.675 0 219.925C0 214.317 1.08795 209.396 3.26386 205.16C5.43976 200.925 8.50259 197.624 12.4523 195.258C16.4257 192.892 21.085 191.709 26.4302 191.709C30.0251 191.709 33.3718 192.288 36.4701 193.448C39.592 194.584 42.3119 196.299 44.6297 198.594C46.9712 200.889 48.7923 203.776 50.0931 207.254C51.3939 210.709 52.0443 214.755 52.0443 219.393V223.546H6.03104V214.175H37.8182C37.8182 211.999 37.3452 210.07 36.3991 208.39C35.4531 206.71 34.1404 205.397 32.4612 204.451C30.8056 203.48 28.8781 202.995 26.6785 202.995C24.3843 202.995 22.3503 203.528 20.5765 204.592C18.8263 205.634 17.4545 207.041 16.4612 208.816C15.4678 210.567 14.9594 212.519 14.9357 214.672V223.581C14.9357 226.278 15.4324 228.609 16.4257 230.573C17.4427 232.537 18.8736 234.051 20.7184 235.116C22.5632 236.181 24.7509 236.713 27.2816 236.713C28.9608 236.713 30.4982 236.477 31.8936 236.003C33.289 235.53 34.4834 234.82 35.4767 233.874C36.4701 232.927 37.2269 231.768 37.7472 230.396L51.7251 231.318C51.0155 234.678 49.561 237.612 47.3614 240.121C45.1855 242.605 42.371 244.545 38.918 245.941C35.4885 247.314 31.527 248 27.0333 248Z" fill="black"/>
<path d="M96.8514 223.723V192.418H111.965V246.935H97.4545V237.033H96.8869C95.6571 240.227 93.6112 242.794 90.7494 244.735C87.9113 246.675 84.4464 247.645 80.3548 247.645C76.7125 247.645 73.5078 246.817 70.7406 245.161C67.9734 243.504 65.8093 241.15 64.2483 238.098C62.711 235.045 61.9305 231.389 61.9069 227.13V192.418H77.02V224.433C77.0436 227.651 77.9069 230.195 79.6098 232.064C81.3126 233.933 83.595 234.868 86.4568 234.868C88.2779 234.868 89.9808 234.454 91.5654 233.625C93.15 232.774 94.4272 231.52 95.3969 229.863C96.3902 228.207 96.8751 226.16 96.8514 223.723Z" fill="black"/>
<path d="M124.053 246.935V192.418H138.457V202.037H139.095C140.231 198.843 142.123 196.323 144.772 194.477C147.421 192.631 150.59 191.709 154.279 191.709C158.016 191.709 161.197 192.643 163.823 194.513C166.448 196.358 168.198 198.866 169.073 202.037H169.641C170.752 198.914 172.763 196.417 175.672 194.548C178.605 192.655 182.069 191.709 186.067 191.709C191.152 191.709 195.279 193.329 198.448 196.571C201.641 199.789 203.237 204.356 203.237 210.271V246.935H188.16V213.253C188.16 210.224 187.355 207.952 185.747 206.438C184.139 204.924 182.129 204.167 179.716 204.167C176.973 204.167 174.832 205.042 173.295 206.793C171.758 208.52 170.989 210.804 170.989 213.643V246.935H156.337V212.933C156.337 210.259 155.568 208.13 154.031 206.545C152.517 204.959 150.519 204.167 148.035 204.167C146.356 204.167 144.843 204.592 143.494 205.444C142.17 206.272 141.118 207.444 140.337 208.958C139.557 210.449 139.166 212.2 139.166 214.211V246.935H124.053Z" fill="black"/>
<path d="M4.14191 195.689H23.0865L43.0953 146.852H43.9468L63.9557 195.689H82.9002V123.001H68V170.312H67.3969L48.5942 123.355H38.4479L19.6452 170.49H19.0421V123.001H4.14191V195.689Z" fill="black"/>
<path d="M130.217 146.213V177.517H145.33V123.001H130.82V132.903H130.253C129.023 129.709 126.977 127.141 124.115 125.201C121.277 123.261 117.812 122.291 113.721 122.291C110.078 122.291 106.874 123.119 104.106 124.775C101.339 126.431 99.1752 128.786 97.6142 131.838C96.0769 134.891 95.2964 138.546 95.2727 142.805V177.517H110.386V145.503C110.409 142.285 111.273 139.741 112.976 137.872C114.678 136.003 116.961 135.068 119.823 135.068C121.644 135.068 123.347 135.482 124.931 136.31C126.516 137.162 127.793 138.416 128.763 140.072C129.756 141.729 130.241 143.776 130.217 146.213Z" fill="black"/>
<path d="M202.758 161.971L188.922 161.12C188.686 162.303 188.177 163.368 187.397 164.314C186.616 165.284 185.588 166.053 184.31 166.621C183.057 167.213 181.555 167.508 179.805 167.508C177.463 167.508 175.489 167.011 173.88 166.018C172.272 165.048 171.468 163.746 171.468 162.113C171.468 160.812 171.988 159.712 173.029 158.813C174.069 157.913 175.855 157.192 178.386 156.648L188.248 154.66C193.546 153.572 197.496 151.821 200.098 149.407C202.699 146.994 204 143.823 204 139.895C204 136.322 202.948 133.187 200.843 130.489C198.761 127.792 195.899 125.686 192.257 124.172C188.639 122.681 184.464 121.936 179.734 121.936C172.52 121.936 166.773 123.438 162.492 126.443C158.235 129.472 155.74 133.589 155.007 138.795L169.871 139.576C170.321 137.375 171.409 135.695 173.135 134.536C174.862 133.4 177.073 132.832 179.769 132.832C182.418 132.832 184.547 133.341 186.155 134.358C187.787 135.399 188.615 136.736 188.639 138.369C188.615 139.741 188.035 140.865 186.9 141.741C185.765 142.64 184.015 143.326 181.65 143.799L172.213 145.68C166.891 146.745 162.93 148.591 160.328 151.217C157.75 153.844 156.461 157.192 156.461 161.262C156.461 164.764 157.407 167.78 159.299 170.312C161.215 172.844 163.899 174.796 167.353 176.169C170.829 177.541 174.897 178.227 179.557 178.227C186.439 178.227 191.855 176.772 195.805 173.862C199.778 170.951 202.096 166.988 202.758 161.971Z" fill="black"/>
<path d="M27.0333 0C21.4279 0 16.6031 1.13577 12.5588 3.4073C8.53806 5.70249 5.43976 8.94415 3.26386 13.1323C1.08795 17.3441 0 22.3249 0 28.0747C0 33.6825 1.08795 38.6042 3.26386 42.8396C5.43976 47.0751 8.50259 50.3759 12.4523 52.7421C16.4257 55.1083 21.085 56.2914 26.4302 56.2914C30.0251 56.2914 33.3718 55.7116 36.4701 54.5522C39.592 53.4165 42.3119 51.701 44.6297 49.4058C46.9712 47.1106 48.7923 44.2239 50.0931 40.7456C51.3939 37.291 52.0443 33.2448 52.0443 28.6071V24.4544H6.03104V33.8245H37.8182C37.8182 36.0014 37.3452 37.9298 36.3991 39.6098C35.4531 41.2898 34.1404 42.603 32.4612 43.5495C30.8056 44.5196 28.8781 45.0047 26.6785 45.0047C24.3843 45.0047 22.3503 44.4723 20.5765 43.4075C18.8263 42.3664 17.4545 40.9585 16.4612 39.1839C15.4678 37.4329 14.9594 35.4808 14.9357 33.3276V24.419C14.9357 21.7215 15.4324 19.3908 16.4257 17.4269C17.4427 15.463 18.8736 13.9486 20.7184 12.8838C22.5632 11.8191 24.7509 11.2867 27.2816 11.2867C28.9608 11.2867 30.4982 11.5233 31.8936 11.9965C33.289 12.4698 34.4834 13.1796 35.4767 14.1261C36.4701 15.0726 37.2269 16.232 37.7472 17.6044L51.7251 16.6815C51.0155 13.3216 49.561 10.3875 47.3614 7.87937C45.1855 5.39488 42.371 3.45462 38.918 2.05857C35.4885 0.686191 31.527 0 27.0333 0Z" fill="black"/>
<path d="M96.8514 24.277V55.5815H111.965V1.06478H97.4545V10.9672H96.8869C95.6571 7.77289 93.6112 5.20559 90.7494 3.26532C87.9113 1.32506 84.4464 0.354927 80.3548 0.354927C76.7125 0.354927 73.5078 1.18309 70.7406 2.83941C67.9734 4.49574 65.8093 6.85008 64.2483 9.90245C62.711 12.9548 61.9305 16.6106 61.9069 20.8697V55.5815H77.02V23.5671C77.0436 20.3491 77.9069 17.8055 79.6098 15.9362C81.3126 14.0669 83.595 13.1323 86.4568 13.1323C88.2779 13.1323 89.9808 13.5464 91.5654 14.3745C93.15 15.2264 94.4272 16.4804 95.3969 18.1368C96.3902 19.7931 96.8751 21.8398 96.8514 24.277Z" fill="black"/>
<path d="M124.053 1.06478V55.5815H138.457V45.963H139.095C140.231 49.1573 142.123 51.6773 144.772 53.5229C147.421 55.3686 150.59 56.2914 154.279 56.2914C158.016 56.2914 161.197 55.3567 163.823 53.4874C166.448 51.6418 168.198 49.1337 169.073 45.963H169.641C170.752 49.0863 172.763 51.5827 175.672 53.4519C178.605 55.3449 182.069 56.2914 186.067 56.2914C191.152 56.2914 195.279 54.6705 198.448 51.4289C201.641 48.2109 203.237 43.6441 203.237 37.7287V1.06478H188.16V34.7473C188.16 37.776 187.355 40.0476 185.747 41.5619C184.139 43.0763 182.129 43.8334 179.716 43.8334C176.973 43.8334 174.832 42.958 173.295 41.207C171.758 39.4797 170.989 37.1963 170.989 34.3569V1.06478H156.337V35.0667C156.337 37.7405 155.568 39.8701 154.031 41.4554C152.517 43.0408 150.519 43.8334 148.035 43.8334C146.356 43.8334 144.843 43.4075 143.494 42.5557C142.17 41.7275 141.118 40.5563 140.337 39.0419C139.557 37.5512 139.166 35.8003 139.166 33.789V1.06478H124.053Z" fill="black"/>
</svg>
